<svg viewBox="0 0 100 100" xmlns="http://www.w3.org/2000/svg">
  <rect width="100" height="100" fill="#E96945"/>
  <g fill="#FFFFFF">
    <path d="M25.49,71.97 Q25.49,71.97 25.41,71.97 Q25.33,71.97 25.25,71.97 Q25.17,71.97 25.09,71.97 Q25.01,71.96 24.93,71.96 Q24.86,71.95 24.78,71.95 Q24.71,71.94 24.63,71.93 Q24.56,71.92 24.49,71.91 Q24.42,71.90 24.35,71.89 Q24.28,71.88 24.21,71.86 Q24.14,71.85 24.07,71.84 Q24.00,71.82 23.94,71.81 Q23.87,71.80 23.80,71.78 Q23.73,71.77 23.66,71.76 Q23.60,71.74 23.53,71.73 Q23.46,71.71 23.39,71.70 Q23.32,71.69 23.26,71.67 Q23.19,71.66 23.12,71.65 Q23.05,71.63 22.98,71.62 Q22.91,71.61 22.85,71.59 Q22.78,71.58 22.71,71.56 Q22.64,71.55 22.57,71.54 Q22.51,71.52 22.44,71.51 Q22.37,71.50 22.30,71.48 Q22.23,71.47 22.16,71.46 Q22.10,71.44 22.03,71.43 Q21.96,71.41 21.89,71.40 Q21.82,71.39 21.75,71.38 Q21.69,71.36 21.62,71.35 Q21.55,71.34 21.48,71.33 Q21.41,71.31 21.34,71.30 Q21.27,71.29 21.20,71.28 Q21.12,71.27 21.05,71.26 Q20.98,71.25 20.91,71.24 Q20.84,71.23 20.77,71.22 Q20.70,71.20 20.63,71.19 Q20.56,71.18 20.50,71.16 Q20.43,71.15 20.37,71.13 Q20.30,71.11 20.24,71.09 Q20.17,71.07 20.11,71.05 Q20.05,71.03 19.99,71.01 Q19.93,70.99 19.87,70.97 Q19.82,70.94 19.76,70.92 Q19.70,70.89 19.64,70.87 Q19.58,70.85 19.53,70.82 Q19.47,70.80 19.41,70.77 Q19.35,70.75 19.30,70.73 Q19.24,70.70 19.18,70.68 Q19.12,70.65 19.06,70.63 Q19.01,70.61 18.95,70.58 Q18.89,70.56 18.83,70.54 Q18.77,70.51 18.72,70.49 Q18.66,70.46 18.60,70.44 Q18.54,70.42 18.48,70.39 Q18.43,70.37 18.37,70.34 Q18.31,70.32 18.25,70.30 Q18.19,70.27 18.14,70.25 Q18.08,70.23 18.02,70.20 Q17.96,70.18 17.91,70.15 Q17.85,70.13 17.79,70.10 Q17.73,70.08 17.68,70.05 Q17.62,70.03 17.56,70.00 Q17.51,69.98 17.45,69.95 Q17.40,69.93 17.34,69.90 Q17.29,69.87 17.23,69.85 Q17.18,69.82 17.12,69.79 Q17.07,69.77 17.01,69.74 Q16.96,69.71 16.91,69.68 Q16.85,69.65 16.80,69.62 Q16.75,69.59 16.70,69.56 Q16.65,69.53 16.60,69.50 Q16.55,69.47 16.50,69.43 Q16.45,69.40 16.40,69.37 Q16.35,69.34 16.30,69.30 Q16.26,69.27 16.21,69.23 Q16.16,69.20 16.11,69.16 Q16.07,69.13 16.02,69.09 Q15.97,69.06 15.93,69.02 Q15.88,68.99 15.84,68.95 Q15.79,68.91 15.75,68.88 Q15.70,68.84 15.66,68.80 Q15.61,68.77 15.57,68.73 Q15.52,68.69 15.48,68.65 Q15.43,68.62 15.39,68.58 Q15.35,68.54 15.30,68.50 Q15.26,68.47 15.21,68.43 Q15.17,68.39 15.12,68.35 Q15.08,68.32 15.04,68.28 Q14.99,68.24 14.95,68.20 Q14.90,68.17 14.86,68.13 Q14.81,68.09 14.77,68.06 Q14.72,68.02 14.68,67.98 Q14.63,67.94 14.59,67.91 Q14.54,67.87 14.50,67.84 Q14.45,67.80 14.40,67.77 Q14.36,67.73 14.31,67.70 Q14.26,67.66 14.22,67.63 Q14.17,67.59 14.12,67.56 Q14.07,67.52 14.03,67.49 Q13.98,67.45 13.94,67.41 Q13.89,67.38 13.85,67.34 Q13.81,67.30 13.77,67.26 Q13.73,67.22 13.69,67.17 Q13.65,67.13 13.61,67.09 Q13.57,67.04 13.54,67.00 Q13.50,66.95 13.47,66.90 Q13.43,66.86 13.40,66.81 Q13.36,66.76 13.33,66.71 Q13.29,66.67 13.26,66.62 Q13.22,66.57 13.19,66.53 Q13.15,66.48 13.12,66.44 Q13.08,66.39 13.04,66.35 Q13.01,66.30 12.97,66.26 Q12.93,66.21 12.90,66.17 Q12.86,66.12 12.82,66.08 Q12.78,66.03 12.74,65.99 Q12.71,65.95 12.67,65.90 Q12.63,65.86 12.59,65.82 Q12.55,65.78 12.51,65.73 Q12.47,65.69 12.43,65.65 Q12.39,65.61 12.35,65.57 Q12.31,65.53 12.27,65.49 Q12.23,65.44 12.19,65.40 Q12.15,65.36 12.11,65.32 Q12.07,65.28 12.03,65.23 Q11.99,65.19 11.95,65.14 Q11.92,65.10 11.88,65.06 Q11.84,65.01 11.81,64.96 Q11.77,64.92 11.74,64.87 Q11.70,64.82 11.67,64.78 Q11.63,64.73 11.60,64.68 Q11.57,64.63 11.54,64.58 Q11.50,64.53 11.47,64.48 Q11.44,64.43 11.41,64.38 Q11.38,64.33 11.35,64.28 Q11.32,64.23 11.29,64.17 Q11.26,64.12 11.23,64.07 Q11.21,64.01 11.18,63.96 Q11.15,63.90 11.12,63.85 Q11.10,63.79 11.07,63.74 Q11.04,63.69 11.01,63.63 Q10.99,63.58 10.96,63.52 Q10.93,63.47 10.91,63.41 Q10.88,63.36 10.85,63.30 Q10.82,63.25 10.80,63.20 Q10.77,63.14 10.74,63.09 Q10.71,63.03 10.69,62.98 Q10.66,62.92 10.63,62.87 Q10.61,62.81 10.58,62.76 Q10.56,62.70 10.53,62.64 Q10.50,62.59 10.48,62.53 Q10.45,62.47 10.43,62.42 Q10.41,62.36 10.38,62.30 Q10.36,62.24 10.33,62.19 Q10.31,62.13 10.28,62.07 Q10.26,62.01 10.24,61.95 Q10.21,61.90 10.19,61.84 Q10.17,61.78 10.14,61.72 Q10.12,61.67 10.09,61.61 Q10.07,61.55 10.05,61.49 Q10.02,61.43 10.00,61.38 Q9.97,61.32 9.95,61.26 Q9.93,61.20 9.90,61.14 Q9.88,61.08 9.86,61.02 Q9.84,60.96 9.82,60.90 Q9.79,60.84 9.77,60.78 Q9.75,60.72 9.73,60.66 Q9.71,60.60 9.70,60.53 Q9.68,60.47 9.66,60.41 Q9.64,60.34 9.62,60.28 Q9.61,60.21 9.59,60.15 Q9.57,60.09 9.55,60.02 Q9.53,59.96 9.51,59.90 Q9.49,59.84 9.47,59.77 Q9.45,59.71 9.43,59.65 Q9.41,59.59 9.39,59.53 Q9.37,59.47 9.34,59.41 Q9.32,59.35 9.30,59.30 Q9.27,59.24 9.25,59.18 Q9.23,59.12 9.21,59.05 Q9.20,58.99 9.18,58.92 Q9.17,58.86 9.15,58.79 Q9.14,58.72 9.13,58.64 Q9.12,58.57 9.12,58.49 Q9.11,58.42 9.11,58.34 Q9.11,58.26 9.11,58.18 Q9.11,58.10 9.11,58.02 Q9.11,57.93 9.11,57.85 Q9.11,57.77 9.11,57.69 Q9.11,57.61 9.11,57.52 Q9.11,57.44 9.11,57.36 Q9.11,57.28 9.11,57.20 Q9.11,57.12 9.11,57.03 Q9.11,56.95 9.11,56.87 Q9.11,56.79 9.11,56.71 Q9.11,56.62 9.11,56.54 Q9.11,56.46 9.11,56.38 Q9.11,56.30 9.11,56.22 Q9.11,56.13 9.11,56.05 Q9.11,55.97 9.11,55.89 Q9.11,55.81 9.11,55.73 Q9.11,55.64 9.11,55.56 Q9.11,55.48 9.11,55.40 Q9.11,55.32 9.11,55.23 Q9.11,55.15 9.11,55.07 Q9.11,54.99 9.11,54.91 Q9.11,54.83 9.11,54.74 Q9.11,54.66 9.11,54.58 Q9.11,54.50 9.11,54.42 Q9.11,54.33 9.11,54.25 Q9.11,54.17 9.11,54.09 Q9.11,54.01 9.11,53.93 Q9.11,53.85 9.11,53.77 Q9.12,53.69 9.12,53.61 Q9.12,53.53 9.13,53.46 Q9.13,53.38 9.14,53.30 Q9.14,53.23 9.15,53.15 Q9.15,53.07 9.16,53.00 Q9.17,52.92 9.18,52.85 Q9.19,52.78 9.20,52.71 Q9.21,52.64 9.22,52.57 Q9.23,52.50 9.25,52.43 Q9.26,52.37 9.28,52.30 Q9.30,52.24 9.32,52.18 Q9.34,52.11 9.36,52.05 Q9.38,51.99 9.41,51.94 Q9.43,51.88 9.45,51.82 Q9.47,51.76 9.49,51.70 Q9.51,51.64 9.53,51.57 Q9.55,51.51 9.57,51.44 Q9.59,51.38 9.60,51.31 Q9.62,51.25 9.63,51.18 Q9.64,51.11 9.66,51.04 Q9.67,50.97 9.68,50.90 Q9.69,50.83 9.70,50.76 Q9.71,50.69 9.73,50.62 Q9.74,50.56 9.76,50.49 Q9.78,50.43 9.80,50.37 Q9.82,50.31 9.84,50.25 Q9.87,50.19 9.89,50.13 Q9.92,50.08 9.95,50.02 Q9.97,49.97 10.01,49.92 Q10.04,49.87 10.07,49.82 Q10.10,49.77 10.14,49.73 Q10.18,49.68 10.22,49.64 Q10.26,49.60 10.30,49.56 Q10.34,49.52 10.39,49.48 Q10.43,49.45 10.48,49.41 Q10.53,49.38 10.58,49.35 Q10.63,49.32 10.69,49.29 Q10.74,49.26 10.80,49.24 Q10.85,49.22 10.91,49.21 Q10.96,49.19 11.02,49.18 Q11.08,49.17 11.14,49.17 Q11.19,49.17 11.25,49.17 Q11.31,49.17 11.37,49.18 Q11.43,49.19 11.49,49.20 Q11.55,49.22 11.61,49.24 Q11.68,49.26 11.74,49.28 Q11.80,49.30 11.86,49.32 Q11.92,49.34 11.97,49.37 Q12.03,49.39 12.09,49.41 Q12.15,49.44 12.21,49.46 Q12.26,49.49 12.32,49.51 Q12.38,49.54 12.43,49.56 Q12.49,49.59 12.54,49.62 Q12.60,49.65 12.65,49.67 Q12.70,49.70 12.76,49.73 Q12.81,49.75 12.87,49.78 Q12.92,49.81 12.98,49.84 Q13.03,49.86 13.09,49.89 Q13.14,49.92 13.20,49.95 Q13.25,49.97 13.30,50.00 Q13.36,50.03 13.41,50.05 Q13.47,50.08 13.52,50.11 Q13.58,50.13 13.63,50.16 Q13.69,50.19 13.75,50.21 Q13.81,50.24 13.86,50.26 Q13.92,50.28 13.98,50.31 Q14.04,50.33 14.10,50.35 Q14.16,50.37 14.22,50.39 Q14.28,50.42 14.34,50.44 Q14.40,50.46 14.46,50.48 Q14.52,50.50 14.58,50.52 Q14.64,50.54 14.70,50.57 Q14.76,50.59 14.82,50.61 Q14.88,50.64 14.93,50.66 Q14.99,50.69 15.05,50.71 Q15.10,50.74 15.16,50.76 Q15.21,50.79 15.27,50.82 Q15.32,50.85 15.38,50.87 Q15.43,50.90 15.49,50.93 Q15.54,50.95 15.59,50.98 Q15.65,51.01 15.70,51.04 Q15.76,51.06 15.81,51.09 Q15.87,51.12 15.92,51.15 Q15.98,51.17 16.03,51.20 Q16.09,51.23 16.14,51.25 Q16.19,51.28 16.25,51.31 Q16.30,51.34 16.36,51.36 Q16.41,51.39 16.47,51.42 Q16.52,51.44 16.58,51.47 Q16.63,51.50 16.68,51.53 Q16.74,51.55 16.79,51.58 Q16.85,51.61 16.90,51.64 Q16.96,51.66 17.01,51.69 Q17.07,51.72 17.12,51.75 Q17.17,51.78 17.22,51.81 Q17.27,51.84 17.32,51.87 Q17.37,51.90 17.42,51.94 Q17.47,51.97 17.51,52.01 Q17.56,52.04 17.60,52.08 Q17.65,52.12 17.69,52.16 Q17.73,52.19 17.78,52.24 Q17.82,52.28 17.85,52.32 Q17.89,52.37 17.92,52.41 Q17.95,52.46 17.97,52.52 Q18.00,52.57 18.01,52.62 Q18.03,52.68 18.05,52.74 Q18.06,52.80 18.07,52.86 Q18.07,52.93 18.08,53.00 Q18.08,53.06 18.08,53.14 Q18.07,53.21 18.07,53.28 Q18.06,53.35 18.06,53.42 Q18.06,53.50 18.05,53.57 Q18.05,53.64 18.04,53.71 Q18.04,53.79 18.03,53.86 Q18.02,53.94 18.02,54.01 Q18.01,54.08 18.01,54.16 Q18.00,54.23 17.99,54.31 Q17.99,54.38 17.98,54.46 Q17.97,54.53 17.96,54.60 Q17.95,54.67 17.94,54.75 Q17.93,54.82 17.92,54.89 Q17.91,54.96 17.89,55.03 Q17.88,55.09 17.87,55.16 Q17.85,55.23 17.84,55.29 Q17.82,55.36 17.80,55.43 Q17.79,55.49 17.77,55.55 Q17.76,55.62 17.75,55.68 Q17.74,55.75 17.73,55.81 Q17.72,55.88 17.72,55.94 Q17.72,56.01 17.72,56.07 Q17.72,56.14 17.72,56.20 Q17.72,56.27 17.73,56.33 Q17.74,56.40 17.75,56.46 Q17.76,56.53 17.77,56.59 Q17.78,56.65 17.79,56.72 Q17.81,56.78 17.82,56.85 Q17.83,56.91 17.85,56.97 Q17.87,57.04 17.88,57.10 Q17.90,57.16 17.92,57.22 Q17.93,57.29 17.95,57.35 Q17.97,57.41 17.99,57.47 Q18.01,57.53 18.03,57.59 Q18.05,57.65 18.08,57.72 Q18.10,57.78 18.12,57.84 Q18.14,57.90 18.16,57.96 Q18.18,58.02 18.20,58.08 Q18.22,58.14 18.24,58.21 Q18.26,58.27 18.28,58.33 Q18.30,58.39 18.32,58.45 Q18.34,58.51 18.36,58.57 Q18.38,58.63 18.41,58.69 Q18.43,58.75 18.45,58.81 Q18.48,58.87 18.50,58.92 Q18.53,58.98 18.56,59.03 Q18.58,59.09 18.61,59.14 Q18.64,59.20 18.67,59.25 Q18.70,59.30 18.73,59.35 Q18.76,59.40 18.79,59.45 Q18.82,59.50 18.86,59.55 Q18.89,59.60 18.92,59.65 Q18.95,59.70 18.99,59.75 Q19.02,59.79 19.06,59.84 Q19.09,59.89 19.13,59.93 Q19.16,59.98 19.20,60.03 Q19.24,60.07 19.27,60.11 Q19.31,60.16 19.35,60.20 Q19.39,60.25 19.43,60.29 Q19.46,60.33 19.50,60.38 Q19.54,60.42 19.58,60.46 Q19.62,60.50 19.66,60.55 Q19.70,60.59 19.74,60.63 Q19.78,60.67 19.82,60.71 Q19.86,60.76 19.90,60.80 Q19.94,60.84 19.98,60.88 Q20.03,60.92 20.07,60.96 Q20.11,61.00 20.15,61.04 Q20.19,61.08 20.24,61.12 Q20.28,61.16 20.32,61.19 Q20.36,61.23 20.41,61.27 Q20.45,61.31 20.50,61.35 Q20.54,61.39 20.58,61.42 Q20.63,61.46 20.67,61.50 Q20.72,61.53 20.77,61.57 Q20.81,61.60 20.86,61.64 Q20.91,61.67 20.96,61.70 Q21.01,61.73 21.06,61.77 Q21.11,61.80 21.16,61.83 Q21.21,61.86 21.27,61.89 Q21.32,61.91 21.37,61.94 Q21.43,61.97 21.48,62.00 Q21.54,62.02 21.59,62.05 Q21.65,62.08 21.70,62.10 Q21.76,62.13 21.81,62.16 Q21.86,62.19 21.92,62.21 Q21.97,62.24 22.03,62.27 Q22.08,62.30 22.14,62.32 Q22.19,62.35 22.25,62.38 Q22.30,62.40 22.36,62.43 Q22.41,62.46 22.47,62.48 Q22.53,62.50 22.59,62.53 Q22.65,62.55 22.71,62.57 Q22.77,62.59 22.83,62.61 Q22.90,62.63 22.96,62.64 Q23.03,62.66 23.09,62.68 Q23.16,62.69 23.23,62.70 Q23.30,62.72 23.37,62.73 Q23.44,62.74 23.51,62.75 Q23.58,62.76 23.65,62.77 Q23.73,62.78 23.80,62.79 Q23.88,62.79 23.95,62.80 Q24.03,62.80 24.11,62.81 Q24.19,62.81 24.27,62.81 Q24.35,62.81 24.43,62.81 Q24.51,62.81 24.59,62.81 Q24.67,62.81 24.75,62.81 Q24.84,62.81 24.92,62.81 Q25.00,62.81 25.08,62.81 Q25.16,62.81 25.25,62.81 Q25.33,62.81 25.41,62.81 Q25.49,62.81 25.57,62.81 Q25.65,62.81 25.74,62.81 Q25.82,62.81 25.90,62.81 Q25.98,62.81 26.06,62.81 Q26.13,62.80 26.21,62.80 Q26.29,62.79 26.36,62.79 Q26.44,62.78 26.51,62.77 Q26.58,62.76 26.66,62.75 Q26.73,62.74 26.80,62.73 Q26.87,62.72 26.94,62.70 Q27.00,62.69 27.07,62.68 Q27.14,62.66 27.20,62.64 Q27.27,62.63 27.33,62.61 Q27.39,62.59 27.45,62.57 Q27.51,62.55 27.57,62.53 Q27.63,62.50 27.69,62.48 Q27.75,62.46 27.81,62.43 Q27.86,62.40 27.92,62.38 Q27.97,62.35 28.03,62.32 Q28.08,62.29 28.13,62.27 Q28.19,62.24 28.24,62.21 Q28.29,62.18 28.35,62.15 Q28.40,62.12 28.45,62.09 Q28.50,62.06 28.56,62.03 Q28.61,62.01 28.66,61.97 Q28.71,61.94 28.76,61.91 Q28.81,61.88 28.86,61.85 Q28.91,61.82 28.96,61.79 Q29.01,61.76 29.06,61.72 Q29.11,61.69 29.16,61.65 Q29.21,61.62 29.25,61.59 Q29.30,61.55 29.35,61.52 Q29.39,61.48 29.44,61.44 Q29.48,61.41 29.53,61.37 Q29.57,61.33 29.61,61.29 Q29.66,61.25 29.70,61.21 Q29.74,61.17 29.78,61.13 Q29.82,61.09 29.86,61.05 Q29.90,61.01 29.94,60.96 Q29.97,60.92 30.01,60.87 Q30.05,60.83 30.08,60.78 Q30.12,60.73 30.15,60.69 Q30.19,60.64 30.22,60.59 Q30.26,60.55 30.29,60.50 Q30.33,60.46 30.37,60.41 Q30.41,60.37 30.45,60.33 Q30.48,60.28 30.53,60.24 Q30.57,60.20 30.61,60.16 Q30.65,60.12 30.69,60.08 Q30.74,60.04 30.78,60.01 Q30.82,59.97 30.87,59.94 Q30.92,59.90 30.97,59.88 Q31.02,59.85 31.07,59.83 Q31.12,59.81 31.18,59.80 Q31.23,59.79 31.29,59.78 Q31.34,59.77 31.40,59.77 Q31.46,59.77 31.53,59.77 Q31.59,59.78 31.65,59.79 Q31.72,59.80 31.78,59.81 Q31.84,59.82 31.91,59.84 Q31.97,59.85 32.03,59.87 Q32.09,59.88 32.15,59.90 Q32.21,59.92 32.27,59.94 Q32.33,59.96 32.38,59.99 Q32.44,60.01 32.50,60.03 Q32.55,60.06 32.61,60.09 Q32.66,60.11 32.71,60.14 Q32.77,60.17 32.82,60.20 Q32.87,60.23 32.92,60.26 Q32.97,60.29 33.02,60.33 Q33.07,60.36 33.12,60.39 Q33.17,60.43 33.21,60.46 Q33.26,60.50 33.31,60.53 Q33.35,60.57 33.40,60.61 Q33.44,60.64 33.49,60.68 Q33.53,60.72 33.58,60.75 Q33.62,60.79 33.67,60.83 Q33.71,60.86 33.76,60.90 Q33.80,60.93 33.85,60.97 Q33.90,61.00 33.94,61.04 Q33.99,61.07 34.04,61.11 Q34.09,61.14 34.13,61.18 Q34.18,61.21 34.23,61.25 Q34.28,61.28 34.32,61.31 Q34.37,61.35 34.42,61.38 Q34.47,61.42 34.51,61.45 Q34.56,61.48 34.61,61.52 Q34.66,61.55 34.71,61.59 Q34.75,61.62 34.80,61.65 Q34.85,61.69 34.90,61.72 Q34.94,61.76 34.99,61.79 Q35.04,61.82 35.09,61.86 Q35.14,61.89 35.19,61.92 Q35.24,61.96 35.28,61.99 Q35.33,62.02 35.38,62.05 Q35.43,62.09 35.48,62.12 Q35.53,62.15 35.59,62.18 Q35.64,62.21 35.69,62.24 Q35.74,62.27 35.79,62.30 Q35.84,62.34 35.89,62.37 Q35.93,62.40 35.98,62.44 Q36.03,62.47 36.08,62.51 Q36.12,62.54 36.17,62.58 Q36.21,62.62 36.25,62.66 Q36.30,62.69 36.34,62.73 Q36.38,62.77 36.42,62.81 Q36.46,62.85 36.51,62.89 Q36.55,62.93 36.59,62.97 Q36.63,63.01 36.68,63.05 Q36.72,63.09 36.76,63.13 Q36.81,63.16 36.85,63.20 Q36.90,63.24 36.94,63.27 Q36.99,63.31 37.04,63.34 Q37.08,63.38 37.13,63.41 Q37.18,63.45 37.22,63.48 Q37.27,63.52 37.31,63.56 Q37.36,63.60 37.40,63.64 Q37.44,63.68 37.47,63.73 Q37.51,63.77 37.55,63.82 Q37.58,63.86 37.61,63.91 Q37.64,63.96 37.67,64.02 Q37.70,64.07 37.73,64.12 Q37.76,64.18 37.78,64.23 Q37.80,64.29 37.82,64.34 Q37.83,64.40 37.85,64.45 Q37.86,64.51 37.86,64.57 Q37.87,64.62 37.87,64.68 Q37.87,64.73 37.86,64.79 Q37.85,64.85 37.84,64.91 Q37.83,64.96 37.81,65.02 Q37.80,65.08 37.78,65.14 Q37.76,65.19 37.74,65.25 Q37.72,65.30 37.69,65.36 Q37.67,65.41 37.64,65.46 Q37.62,65.52 37.59,65.57 Q37.56,65.62 37.53,65.67 Q37.50,65.72 37.47,65.77 Q37.44,65.82 37.40,65.87 Q37.37,65.91 37.34,65.96 Q37.30,66.01 37.27,66.06 Q37.23,66.10 37.20,66.15 Q37.16,66.20 37.13,66.24 Q37.09,66.29 37.05,66.33 Q37.02,66.38 36.98,66.42 Q36.94,66.47 36.91,66.51 Q36.87,66.56 36.83,66.60 Q36.79,66.65 36.76,66.69 Q36.72,66.74 36.68,66.78 Q36.64,66.82 36.60,66.87 Q36.56,66.91 36.53,66.95 Q36.49,66.99 36.45,67.04 Q36.41,67.08 36.37,67.12 Q36.33,67.16 36.29,67.20 Q36.25,67.24 36.21,67.28 Q36.16,67.33 36.12,67.37 Q36.08,67.41 36.04,67.44 Q36.00,67.48 35.95,67.52 Q35.91,67.56 35.86,67.60 Q35.82,67.64 35.77,67.67 Q35.73,67.71 35.68,67.74 Q35.64,67.78 35.59,67.82 Q35.54,67.85 35.50,67.88 Q35.45,67.92 35.40,67.95 Q35.35,67.99 35.31,68.02 Q35.26,68.05 35.21,68.09 Q35.16,68.12 35.11,68.16 Q35.07,68.19 35.02,68.23 Q34.97,68.26 34.92,68.29 Q34.88,68.33 34.83,68.36 Q34.78,68.40 34.73,68.43 Q34.69,68.46 34.64,68.50 Q34.59,68.53 34.54,68.56 Q34.49,68.60 34.44,68.63 Q34.39,68.66 34.34,68.70 Q34.29,68.73 34.25,68.76 Q34.20,68.79 34.14,68.82 Q34.09,68.85 34.04,68.89 Q33.99,68.92 33.94,68.95 Q33.89,68.98 33.84,69.01 Q33.79,69.04 33.74,69.07 Q33.69,69.10 33.64,69.14 Q33.59,69.17 33.54,69.20 Q33.49,69.23 33.44,69.27 Q33.39,69.30 33.34,69.33 Q33.30,69.36 33.25,69.40 Q33.20,69.43 33.15,69.47 Q33.10,69.50 33.06,69.53 Q33.01,69.57 32.96,69.60 Q32.91,69.63 32.86,69.67 Q32.81,69.70 32.76,69.73 Q32.71,69.76 32.66,69.80 Q32.61,69.83 32.56,69.86 Q32.51,69.89 32.46,69.92 Q32.41,69.95 32.36,69.98 Q32.31,70.01 32.26,70.04 Q32.21,70.07 32.15,70.10 Q32.10,70.13 32.05,70.16 Q31.99,70.19 31.94,70.22 Q31.88,70.24 31.83,70.27 Q31.77,70.30 31.72,70.32 Q31.66,70.35 31.60,70.37 Q31.55,70.40 31.49,70.42 Q31.43,70.44 31.37,70.47 Q31.31,70.49 31.25,70.51 Q31.19,70.53 31.13,70.56 Q31.07,70.58 31.01,70.60 Q30.95,70.62 30.89,70.64 Q30.83,70.66 30.76,70.68 Q30.70,70.69 30.64,70.71 Q30.57,70.73 30.51,70.75 Q30.44,70.76 30.38,70.78 Q30.32,70.80 30.25,70.82 Q30.19,70.84 30.13,70.86 Q30.07,70.88 30.01,70.90 Q29.95,70.93 29.89,70.95 Q29.83,70.97 29.78,71.00 Q29.72,71.02 29.66,71.05 Q29.61,71.07 29.55,71.10 Q29.50,71.13 29.44,71.15 Q29.38,71.18 29.32,71.20 Q29.26,71.22 29.20,71.24 Q29.14,71.26 29.08,71.28 Q29.01,71.30 28.94,71.31 Q28.88,71.32 28.81,71.34 Q28.74,71.35 28.66,71.36 Q28.59,71.37 28.52,71.37 Q28.44,71.38 28.37,71.39 Q28.29,71.40 28.22,71.40 Q28.15,71.41 28.07,71.42 Q28.00,71.43 27.93,71.44 Q27.86,71.45 27.79,71.46 Q27.72,71.47 27.65,71.49 Q27.58,71.50 27.51,71.51 Q27.44,71.52 27.37,71.54 Q27.30,71.55 27.24,71.57 Q27.17,71.58 27.11,71.60 Q27.05,71.61 26.99,71.63 Q26.93,71.64 26.87,71.66 Q26.81,71.68 26.75,71.70 Q26.70,71.71 26.65,71.73 Q26.59,71.75 26.54,71.77 Q26.49,71.79 26.44,71.81 Q26.40,71.83 26.35,71.85 Q26.29,71.87 26.24,71.88 Q26.18,71.90 26.12,71.91 Q26.06,71.92 26.00,71.93 Q25.93,71.94 25.86,71.95 Q25.79,71.96 25.72,71.96 Q25.65,71.97 25.57,71.97 Z" transform="translate(0 0) translate(21.75 62.15) scale(1 1) translate(-21.75 -62.15)"/><path d="M75.24,71.95 Q75.24,71.95 75.16,71.95 Q75.09,71.94 75.01,71.94 Q74.93,71.93 74.86,71.93 Q74.78,71.92 74.71,71.91 Q74.64,71.90 74.56,71.89 Q74.49,71.88 74.42,71.87 Q74.35,71.86 74.28,71.84 Q74.22,71.83 74.15,71.82 Q74.08,71.80 74.02,71.78 Q73.95,71.77 73.89,71.75 Q73.82,71.73 73.75,71.72 Q73.69,71.71 73.62,71.69 Q73.55,71.68 73.48,71.67 Q73.41,71.66 73.34,71.64 Q73.27,71.63 73.20,71.62 Q73.12,71.62 73.05,71.61 Q72.98,71.60 72.90,71.59 Q72.83,71.59 72.75,71.58 Q72.68,71.57 72.60,71.56 Q72.53,71.55 72.46,71.54 Q72.39,71.53 72.31,71.52 Q72.24,71.51 72.17,71.50 Q72.10,71.49 72.03,71.48 Q71.96,71.47 71.89,71.45 Q71.82,71.44 71.76,71.43 Q71.69,71.41 71.62,71.40 Q71.55,71.39 71.48,71.37 Q71.42,71.36 71.35,71.34 Q71.28,71.33 71.22,71.31 Q71.15,71.30 71.08,71.28 Q71.02,71.27 70.95,71.25 Q70.89,71.23 70.82,71.22 Q70.76,71.20 70.69,71.18 Q70.63,71.17 70.56,71.15 Q70.50,71.13 70.44,71.11 Q70.37,71.09 70.31,71.07 Q70.25,71.05 70.19,71.03 Q70.13,71.01 70.07,70.99 Q70.01,70.97 69.95,70.95 Q69.89,70.93 69.83,70.90 Q69.77,70.88 69.71,70.86 Q69.65,70.83 69.59,70.81 Q69.54,70.79 69.48,70.76 Q69.42,70.74 69.36,70.72 Q69.30,70.69 69.24,70.67 Q69.18,70.65 69.12,70.63 Q69.06,70.61 69.00,70.59 Q68.94,70.56 68.88,70.54 Q68.82,70.52 68.76,70.50 Q68.70,70.48 68.63,70.46 Q68.57,70.44 68.51,70.42 Q68.46,70.39 68.40,70.37 Q68.34,70.35 68.28,70.32 Q68.22,70.30 68.16,70.28 Q68.11,70.25 68.05,70.23 Q68.00,70.20 67.94,70.17 Q67.88,70.15 67.83,70.12 Q67.78,70.09 67.72,70.07 Q67.67,70.04 67.61,70.01 Q67.56,69.98 67.51,69.95 Q67.45,69.92 67.40,69.90 Q67.35,69.87 67.30,69.84 Q67.24,69.81 67.19,69.78 Q67.14,69.75 67.09,69.72 Q67.04,69.69 66.98,69.66 Q66.93,69.63 66.88,69.59 Q66.83,69.56 66.78,69.53 Q66.73,69.50 66.68,69.47 Q66.63,69.44 66.58,69.40 Q66.53,69.37 66.48,69.34 Q66.44,69.31 66.39,69.27 Q66.34,69.24 66.29,69.21 Q66.24,69.17 66.19,69.14 Q66.15,69.10 66.10,69.07 Q66.05,69.04 66.00,69.00 Q65.96,68.97 65.91,68.93 Q65.86,68.90 65.81,68.87 Q65.76,68.83 65.72,68.80 Q65.67,68.76 65.62,68.73 Q65.57,68.70 65.53,68.66 Q65.48,68.63 65.43,68.59 Q65.38,68.56 65.34,68.52 Q65.29,68.49 65.24,68.46 Q65.19,68.42 65.15,68.38 Q65.10,68.35 65.06,68.31 Q65.01,68.28 64.96,68.24 Q64.92,68.21 64.87,68.17 Q64.83,68.13 64.78,68.10 Q64.74,68.06 64.69,68.02 Q64.65,67.98 64.61,67.95 Q64.56,67.91 64.52,67.87 Q64.47,67.83 64.43,67.80 Q64.38,67.76 64.34,67.72 Q64.30,67.68 64.25,67.65 Q64.21,67.61 64.16,67.57 Q64.12,67.53 64.07,67.50 Q64.03,67.46 63.99,67.42 Q63.94,67.38 63.90,67.35 Q63.85,67.31 63.81,67.27 Q63.77,67.23 63.72,67.19 Q63.68,67.15 63.64,67.11 Q63.60,67.08 63.55,67.04 Q63.51,67.00 63.47,66.96 Q63.43,66.92 63.39,66.88 Q63.35,66.83 63.30,66.79 Q63.26,66.75 63.22,66.71 Q63.18,66.67 63.14,66.63 Q63.10,66.58 63.07,66.54 Q63.03,66.50 62.99,66.45 Q62.95,66.41 62.92,66.36 Q62.88,66.32 62.84,66.27 Q62.81,66.23 62.77,66.18 Q62.74,66.13 62.70,66.09 Q62.67,66.04 62.64,65.99 Q62.60,65.94 62.57,65.89 Q62.54,65.84 62.51,65.79 Q62.48,65.74 62.45,65.69 Q62.41,65.64 62.38,65.59 Q62.36,65.53 62.33,65.48 Q62.30,65.43 62.27,65.38 Q62.24,65.32 62.21,65.27 Q62.19,65.21 62.17,65.16 Q62.14,65.10 62.13,65.05 Q62.11,64.99 62.10,64.93 Q62.09,64.88 62.09,64.82 Q62.09,64.76 62.09,64.70 Q62.09,64.64 62.10,64.58 Q62.11,64.52 62.12,64.46 Q62.14,64.40 62.16,64.34 Q62.18,64.28 62.20,64.22 Q62.23,64.16 62.25,64.11 Q62.28,64.05 62.31,64.00 Q62.34,63.95 62.37,63.90 Q62.40,63.85 62.44,63.80 Q62.47,63.75 62.51,63.71 Q62.55,63.67 62.59,63.63 Q62.63,63.59 62.68,63.55 Q62.72,63.51 62.77,63.47 Q62.81,63.44 62.85,63.40 Q62.90,63.36 62.94,63.32 Q62.99,63.29 63.03,63.25 Q63.08,63.21 63.12,63.17 Q63.16,63.14 63.21,63.10 Q63.25,63.06 63.30,63.02 Q63.34,62.99 63.39,62.95 Q63.43,62.91 63.48,62.88 Q63.52,62.84 63.56,62.80 Q63.61,62.76 63.66,62.73 Q63.70,62.69 63.75,62.66 Q63.79,62.62 63.84,62.59 Q63.89,62.55 63.93,62.52 Q63.98,62.48 64.03,62.45 Q64.07,62.41 64.12,62.38 Q64.17,62.34 64.22,62.31 Q64.27,62.28 64.31,62.24 Q64.36,62.21 64.41,62.17 Q64.46,62.14 64.50,62.10 Q64.55,62.07 64.60,62.04 Q64.65,62.00 64.69,61.97 Q64.74,61.93 64.79,61.90 Q64.84,61.87 64.89,61.83 Q64.93,61.80 64.98,61.76 Q65.03,61.73 65.08,61.70 Q65.12,61.66 65.17,61.63 Q65.22,61.59 65.27,61.56 Q65.31,61.53 65.36,61.49 Q65.41,61.46 65.46,61.42 Q65.51,61.39 65.55,61.35 Q65.60,61.32 65.65,61.29 Q65.70,61.25 65.74,61.22 Q65.79,61.18 65.84,61.15 Q65.89,61.12 65.94,61.08 Q65.98,61.05 66.03,61.01 Q66.08,60.98 66.13,60.95 Q66.17,60.91 66.22,60.88 Q66.27,60.84 66.32,60.81 Q66.36,60.78 66.41,60.74 Q66.46,60.71 66.51,60.67 Q66.56,60.64 66.61,60.61 Q66.66,60.58 66.71,60.54 Q66.76,60.51 66.81,60.48 Q66.86,60.45 66.91,60.42 Q66.96,60.39 67.02,60.36 Q67.07,60.33 67.12,60.31 Q67.18,60.28 67.23,60.25 Q67.28,60.22 67.34,60.20 Q67.39,60.17 67.45,60.14 Q67.51,60.12 67.56,60.09 Q67.62,60.07 67.67,60.04 Q67.73,60.01 67.79,59.99 Q67.84,59.96 67.90,59.94 Q67.96,59.91 68.01,59.89 Q68.07,59.87 68.13,59.84 Q68.19,59.82 68.24,59.80 Q68.30,59.79 68.35,59.78 Q68.41,59.77 68.46,59.77 Q68.51,59.77 68.57,59.77 Q68.62,59.78 68.67,59.80 Q68.72,59.81 68.76,59.83 Q68.81,59.85 68.86,59.88 Q68.90,59.91 68.95,59.95 Q68.99,59.99 69.04,60.03 Q69.08,60.06 69.12,60.10 Q69.17,60.14 69.21,60.18 Q69.25,60.22 69.30,60.26 Q69.34,60.30 69.38,60.34 Q69.42,60.38 69.46,60.42 Q69.51,60.46 69.55,60.50 Q69.59,60.54 69.63,60.58 Q69.67,60.62 69.71,60.66 Q69.75,60.70 69.79,60.74 Q69.83,60.78 69.87,60.82 Q69.92,60.86 69.96,60.91 Q70.00,60.95 70.04,60.99 Q70.08,61.03 70.12,61.07 Q70.16,61.11 70.20,61.15 Q70.24,61.19 70.28,61.23 Q70.32,61.27 70.37,61.31 Q70.41,61.35 70.46,61.39 Q70.50,61.42 70.55,61.46 Q70.60,61.49 70.64,61.53 Q70.69,61.56 70.75,61.59 Q70.80,61.62 70.85,61.65 Q70.90,61.67 70.96,61.70 Q71.02,61.73 71.07,61.75 Q71.13,61.77 71.19,61.80 Q71.25,61.82 71.30,61.85 Q71.36,61.87 71.41,61.90 Q71.47,61.93 71.52,61.95 Q71.58,61.98 71.63,62.01 Q71.69,62.04 71.74,62.07 Q71.79,62.10 71.84,62.13 Q71.90,62.16 71.95,62.19 Q72.00,62.22 72.05,62.25 Q72.10,62.28 72.15,62.31 Q72.21,62.33 72.26,62.36 Q72.31,62.39 72.37,62.42 Q72.42,62.45 72.48,62.47 Q72.53,62.50 72.59,62.52 Q72.65,62.55 72.70,62.57 Q72.76,62.60 72.82,62.62 Q72.88,62.65 72.94,62.67 Q73.00,62.69 73.06,62.71 Q73.13,62.72 73.19,62.74 Q73.26,62.75 73.33,62.77 Q73.40,62.78 73.47,62.79 Q73.55,62.80 73.62,62.80 Q73.70,62.81 73.78,62.81 Q73.85,62.81 73.94,62.81 Q74.02,62.81 74.10,62.81 Q74.18,62.81 74.26,62.81 Q74.35,62.81 74.43,62.81 Q74.51,62.81 74.59,62.81 Q74.67,62.81 74.75,62.81 Q74.84,62.81 74.92,62.81 Q75.00,62.81 75.08,62.81 Q75.16,62.81 75.25,62.81 Q75.33,62.81 75.41,62.81 Q75.49,62.81 75.57,62.81 Q75.65,62.81 75.73,62.81 Q75.81,62.81 75.89,62.81 Q75.97,62.81 76.05,62.80 Q76.13,62.80 76.21,62.80 Q76.29,62.80 76.37,62.79 Q76.45,62.79 76.53,62.79 Q76.61,62.78 76.68,62.78 Q76.76,62.77 76.83,62.76 Q76.90,62.75 76.97,62.74 Q77.04,62.73 77.11,62.72 Q77.18,62.70 77.25,62.69 Q77.31,62.67 77.38,62.65 Q77.44,62.63 77.50,62.61 Q77.56,62.59 77.62,62.57 Q77.68,62.54 77.73,62.52 Q77.79,62.49 77.85,62.47 Q77.90,62.44 77.96,62.42 Q78.01,62.39 78.07,62.36 Q78.12,62.34 78.18,62.31 Q78.23,62.28 78.28,62.25 Q78.33,62.22 78.39,62.19 Q78.44,62.16 78.49,62.13 Q78.54,62.10 78.59,62.07 Q78.64,62.04 78.69,62.01 Q78.74,61.98 78.79,61.94 Q78.84,61.91 78.89,61.88 Q78.94,61.85 78.99,61.81 Q79.04,61.78 79.09,61.75 Q79.14,61.72 79.18,61.68 Q79.23,61.65 79.28,61.61 Q79.33,61.58 79.37,61.54 Q79.42,61.51 79.47,61.47 Q79.51,61.44 79.56,61.40 Q79.60,61.36 79.64,61.32 Q79.68,61.28 79.73,61.24 Q79.77,61.20 79.81,61.16 Q79.85,61.12 79.89,61.07 Q79.92,61.03 79.96,60.99 Q80.00,60.94 80.04,60.90 Q80.07,60.85 80.11,60.81 Q80.15,60.77 80.19,60.72 Q80.22,60.68 80.26,60.63 Q80.30,60.59 80.34,60.54 Q80.37,60.50 80.41,60.46 Q80.45,60.41 80.49,60.37 Q80.52,60.32 80.56,60.28 Q80.60,60.23 80.64,60.19 Q80.67,60.14 80.71,60.10 Q80.74,60.05 80.78,60.00 Q80.81,59.96 80.85,59.91 Q80.88,59.86 80.92,59.81 Q80.95,59.77 80.98,59.72 Q81.01,59.67 81.04,59.62 Q81.08,59.57 81.11,59.51 Q81.14,59.46 81.17,59.41 Q81.20,59.36 81.23,59.31 Q81.26,59.26 81.29,59.20 Q81.32,59.15 81.35,59.10 Q81.37,59.05 81.40,58.99 Q81.43,58.94 81.46,58.89 Q81.49,58.83 81.52,58.78 Q81.54,58.72 81.57,58.67 Q81.60,58.62 81.62,58.56 Q81.65,58.50 81.67,58.45 Q81.70,58.39 81.72,58.33 Q81.75,58.27 81.77,58.21 Q81.79,58.15 81.81,58.09 Q81.83,58.03 81.85,57.97 Q81.87,57.91 81.89,57.84 Q81.91,57.78 81.92,57.72 Q81.94,57.65 81.96,57.59 Q81.97,57.52 81.99,57.45 Q82.00,57.39 82.02,57.32 Q82.03,57.25 82.05,57.18 Q82.06,57.12 82.07,57.05 Q82.09,56.98 82.10,56.91 Q82.11,56.84 82.12,56.77 Q82.13,56.70 82.14,56.62 Q82.15,56.55 82.16,56.48 Q82.17,56.41 82.18,56.34 Q82.19,56.27 82.20,56.20 Q82.21,56.13 82.22,56.06 Q82.23,55.99 82.23,55.92 Q82.24,55.85 82.25,55.78 Q82.26,55.71 82.27,55.64 Q82.27,55.58 82.28,55.51 Q82.29,55.44 82.29,55.37 Q82.29,55.30 82.29,55.24 Q82.30,55.17 82.29,55.10 Q82.29,55.04 82.29,54.97 Q82.28,54.90 82.27,54.84 Q82.26,54.77 82.25,54.70 Q82.24,54.64 82.23,54.57 Q82.21,54.51 82.20,54.44 Q82.18,54.38 82.16,54.31 Q82.15,54.25 82.13,54.18 Q82.11,54.12 82.10,54.05 Q82.08,53.99 82.07,53.92 Q82.05,53.85 82.04,53.79 Q82.02,53.72 82.01,53.65 Q81.99,53.58 81.98,53.52 Q81.97,53.45 81.95,53.38 Q81.94,53.31 81.93,53.25 Q81.92,53.18 81.92,53.12 Q81.92,53.06 81.92,52.99 Q81.93,52.93 81.94,52.88 Q81.95,52.82 81.96,52.76 Q81.98,52.71 82.00,52.65 Q82.03,52.60 82.05,52.55 Q82.08,52.50 82.12,52.45 Q82.15,52.41 82.19,52.36 Q82.22,52.31 82.26,52.27 Q82.30,52.23 82.34,52.19 Q82.38,52.15 82.42,52.11 Q82.46,52.07 82.51,52.03 Q82.55,51.99 82.60,51.96 Q82.65,51.92 82.70,51.89 Q82.75,51.86 82.80,51.83 Q82.85,51.80 82.90,51.77 Q82.95,51.74 83.00,51.71 Q83.06,51.68 83.11,51.65 Q83.16,51.62 83.21,51.59 Q83.27,51.56 83.32,51.53 Q83.37,51.50 83.43,51.47 Q83.48,51.45 83.53,51.42 Q83.59,51.39 83.64,51.36 Q83.70,51.34 83.75,51.31 Q83.81,51.28 83.86,51.25 Q83.91,51.23 83.97,51.20 Q84.02,51.17 84.08,51.15 Q84.13,51.12 84.19,51.09 Q84.24,51.06 84.30,51.04 Q84.35,51.01 84.41,50.98 Q84.46,50.95 84.51,50.93 Q84.57,50.90 84.62,50.87 Q84.68,50.85 84.73,50.82 Q84.79,50.79 84.84,50.76 Q84.90,50.74 84.95,50.71 Q85.01,50.68 85.06,50.65 Q85.11,50.63 85.17,50.60 Q85.22,50.57 85.28,50.55 Q85.33,50.52 85.39,50.49 Q85.44,50.46 85.50,50.44 Q85.55,50.41 85.61,50.39 Q85.66,50.36 85.72,50.33 Q85.78,50.31 85.84,50.29 Q85.89,50.26 85.95,50.24 Q86.01,50.22 86.07,50.19 Q86.13,50.17 86.19,50.15 Q86.25,50.13 86.31,50.11 Q86.38,50.09 86.44,50.07 Q86.50,50.05 86.55,50.02 Q86.61,50.00 86.67,49.97 Q86.73,49.95 86.78,49.93 Q86.84,49.90 86.90,49.87 Q86.95,49.85 87.00,49.82 Q87.06,49.79 87.11,49.76 Q87.16,49.73 87.21,49.70 Q87.26,49.67 87.32,49.64 Q87.37,49.61 87.42,49.58 Q87.47,49.55 87.53,49.52 Q87.58,49.50 87.64,49.47 Q87.69,49.44 87.75,49.41 Q87.80,49.39 87.86,49.36 Q87.91,49.34 87.97,49.31 Q88.03,49.29 88.09,49.26 Q88.14,49.24 88.20,49.22 Q88.26,49.20 88.32,49.19 Q88.38,49.17 88.45,49.16 Q88.51,49.15 88.57,49.15 Q88.63,49.14 88.70,49.14 Q88.76,49.14 88.83,49.15 Q88.89,49.15 88.96,49.16 Q89.03,49.17 89.09,49.18 Q89.16,49.20 89.23,49.21 Q89.29,49.23 89.35,49.26 Q89.41,49.28 89.46,49.31 Q89.52,49.33 89.57,49.37 Q89.61,49.40 89.66,49.44 Q89.70,49.47 89.74,49.51 Q89.78,49.56 89.82,49.60 Q89.85,49.65 89.89,49.70 Q89.92,49.75 89.95,49.80 Q89.97,49.86 90.00,49.91 Q90.03,49.96 90.06,50.02 Q90.08,50.07 90.11,50.13 Q90.14,50.19 90.16,50.24 Q90.18,50.30 90.21,50.36 Q90.23,50.42 90.25,50.48 Q90.27,50.54 90.29,50.60 Q90.31,50.66 90.33,50.72 Q90.35,50.79 90.37,50.85 Q90.39,50.91 90.41,50.98 Q90.43,51.04 90.44,51.10 Q90.46,51.17 90.48,51.23 Q90.49,51.30 90.51,51.37 Q90.52,51.43 90.54,51.50 Q90.55,51.57 90.57,51.64 Q90.58,51.70 90.59,51.77 Q90.61,51.84 90.62,51.91 Q90.64,51.98 90.65,52.04 Q90.66,52.11 90.68,52.18 Q90.69,52.25 90.70,52.32 Q90.72,52.39 90.73,52.45 Q90.74,52.52 90.76,52.59 Q90.77,52.66 90.79,52.73 Q90.80,52.79 90.81,52.86 Q90.82,52.93 90.83,53.01 Q90.84,53.08 90.85,53.15 Q90.86,53.22 90.87,53.30 Q90.87,53.37 90.88,53.45 Q90.88,53.53 90.89,53.61 Q90.89,53.68 90.89,53.76 Q90.89,53.84 90.89,53.93 Q90.89,54.01 90.89,54.09 Q90.89,54.17 90.89,54.25 Q90.89,54.33 90.89,54.42 Q90.89,54.50 90.89,54.58 Q90.89,54.66 90.89,54.74 Q90.89,54.83 90.89,54.91 Q90.89,54.99 90.89,55.07 Q90.89,55.15 90.89,55.23 Q90.89,55.32 90.89,55.40 Q90.89,55.48 90.89,55.56 Q90.89,55.64 90.89,55.73 Q90.89,55.81 90.89,55.89 Q90.89,55.97 90.89,56.05 Q90.89,56.13 90.89,56.22 Q90.89,56.30 90.89,56.38 Q90.89,56.46 90.89,56.54 Q90.89,56.62 90.89,56.71 Q90.89,56.79 90.89,56.87 Q90.89,56.95 90.89,57.03 Q90.89,57.12 90.89,57.20 Q90.89,57.28 90.89,57.36 Q90.89,57.44 90.89,57.52 Q90.89,57.61 90.89,57.69 Q90.89,57.77 90.89,57.85 Q90.89,57.93 90.89,58.01 Q90.89,58.09 90.89,58.17 Q90.88,58.25 90.88,58.32 Q90.87,58.40 90.86,58.47 Q90.85,58.55 90.84,58.62 Q90.83,58.69 90.82,58.76 Q90.80,58.83 90.79,58.89 Q90.77,58.96 90.76,59.02 Q90.74,59.09 90.72,59.15 Q90.71,59.22 90.69,59.28 Q90.67,59.34 90.65,59.40 Q90.63,59.47 90.61,59.53 Q90.59,59.59 90.57,59.65 Q90.54,59.71 90.52,59.77 Q90.50,59.83 90.48,59.89 Q90.45,59.95 90.43,60.01 Q90.41,60.06 90.38,60.12 Q90.36,60.18 90.34,60.24 Q90.32,60.30 90.30,60.36 Q90.27,60.42 90.25,60.48 Q90.23,60.54 90.21,60.61 Q90.19,60.67 90.18,60.73 Q90.16,60.79 90.14,60.86 Q90.12,60.92 90.10,60.99 Q90.09,61.05 90.07,61.12 Q90.05,61.18 90.03,61.24 Q90.01,61.31 89.99,61.37 Q89.97,61.43 89.95,61.49 Q89.93,61.55 89.91,61.61 Q89.89,61.67 89.87,61.73 Q89.85,61.79 89.82,61.85 Q89.80,61.91 89.78,61.97 Q89.75,62.03 89.73,62.08 Q89.70,62.14 89.68,62.20 Q89.65,62.26 89.63,62.31 Q89.60,62.37 89.58,62.43 Q89.55,62.48 89.53,62.54 Q89.50,62.59 89.47,62.65 Q89.45,62.70 89.42,62.76 Q89.39,62.81 89.37,62.87 Q89.34,62.92 89.31,62.98 Q89.29,63.03 89.26,63.09 Q89.23,63.14 89.20,63.20 Q89.18,63.25 89.15,63.30 Q89.12,63.36 89.09,63.41 Q89.07,63.47 89.04,63.52 Q89.01,63.58 88.99,63.63 Q88.96,63.69 88.93,63.74 Q88.90,63.79 88.88,63.85 Q88.85,63.90 88.82,63.96 Q88.79,64.01 88.76,64.06 Q88.73,64.11 88.70,64.16 Q88.67,64.21 88.64,64.26 Q88.61,64.31 88.57,64.36 Q88.54,64.41 88.51,64.46 Q88.47,64.51 88.44,64.56 Q88.41,64.61 88.37,64.65 Q88.34,64.70 88.30,64.75 Q88.27,64.79 88.23,64.84 Q88.20,64.89 88.16,64.93 Q88.13,64.98 88.09,65.02 Q88.05,65.07 88.02,65.12 Q87.98,65.16 87.94,65.21 Q87.91,65.25 87.87,65.29 Q87.83,65.34 87.79,65.38 Q87.76,65.43 87.72,65.47 Q87.68,65.52 87.65,65.56 Q87.61,65.61 87.57,65.66 Q87.54,65.70 87.50,65.75 Q87.47,65.79 87.43,65.84 Q87.40,65.89 87.36,65.94 Q87.33,65.98 87.30,66.03 Q87.26,66.08 87.23,66.13 Q87.19,66.17 87.16,66.22 Q87.12,66.27 87.09,66.31 Q87.05,66.36 87.02,66.41 Q86.98,66.45 86.94,66.50 Q86.91,66.54 86.87,66.59 Q86.83,66.63 86.80,66.68 Q86.76,66.72 86.72,66.77 Q86.69,66.81 86.65,66.85 Q86.61,66.90 86.57,66.94 Q86.53,66.98 86.49,67.02 Q86.45,67.07 86.41,67.11 Q86.37,67.15 86.33,67.19 Q86.29,67.23 86.24,67.27 Q86.20,67.31 86.16,67.35 Q86.11,67.38 86.07,67.42 Q86.02,67.46 85.98,67.50 Q85.93,67.53 85.89,67.57 Q85.84,67.61 85.80,67.64 Q85.75,67.68 85.71,67.71 Q85.66,67.75 85.62,67.79 Q85.57,67.82 85.52,67.86 Q85.47,67.89 85.43,67.92 Q85.38,67.96 85.33,67.99 Q85.28,68.03 85.24,68.06 Q85.19,68.10 85.15,68.13 Q85.10,68.17 85.05,68.21 Q85.01,68.24 84.96,68.28 Q84.92,68.32 84.88,68.36 Q84.83,68.39 84.79,68.43 Q84.75,68.47 84.71,68.51 Q84.66,68.55 84.62,68.59 Q84.58,68.63 84.54,68.67 Q84.50,68.71 84.46,68.75 Q84.41,68.79 84.37,68.83 Q84.32,68.86 84.28,68.90 Q84.23,68.94 84.18,68.97 Q84.14,69.00 84.09,69.04 Q84.04,69.07 83.99,69.10 Q83.94,69.14 83.89,69.17 Q83.84,69.20 83.79,69.23 Q83.73,69.26 83.68,69.29 Q83.63,69.32 83.58,69.35 Q83.53,69.38 83.48,69.41 Q83.43,69.44 83.38,69.47 Q83.33,69.50 83.27,69.53 Q83.22,69.56 83.17,69.60 Q83.12,69.63 83.07,69.66 Q83.02,69.69 82.97,69.72 Q82.91,69.75 82.86,69.78 Q82.81,69.80 82.76,69.83 Q82.70,69.86 82.65,69.89 Q82.59,69.92 82.54,69.94 Q82.48,69.97 82.43,69.99 Q82.37,70.02 82.31,70.04 Q82.26,70.07 82.20,70.09 Q82.14,70.12 82.08,70.14 Q82.02,70.16 81.97,70.19 Q81.91,70.21 81.85,70.24 Q81.79,70.26 81.73,70.28 Q81.68,70.31 81.62,70.33 Q81.56,70.36 81.50,70.38 Q81.44,70.40 81.39,70.43 Q81.33,70.45 81.27,70.47 Q81.21,70.50 81.15,70.52 Q81.10,70.55 81.04,70.57 Q80.98,70.59 80.92,70.61 Q80.86,70.64 80.80,70.66 Q80.74,70.68 80.68,70.70 Q80.62,70.72 80.56,70.75 Q80.50,70.77 80.44,70.79 Q80.38,70.81 80.32,70.83 Q80.25,70.85 80.19,70.87 Q80.13,70.89 80.07,70.91 Q80.01,70.93 79.95,70.95 Q79.89,70.97 79.83,70.99 Q79.76,71.01 79.70,71.03 Q79.64,71.05 79.58,71.07 Q79.52,71.09 79.46,71.12 Q79.40,71.14 79.33,71.16 Q79.27,71.18 79.21,71.20 Q79.15,71.21 79.08,71.23 Q79.02,71.25 78.95,71.26 Q78.88,71.28 78.82,71.29 Q78.75,71.31 78.68,71.32 Q78.61,71.33 78.54,71.34 Q78.47,71.35 78.39,71.36 Q78.32,71.37 78.24,71.37 Q78.17,71.38 78.10,71.39 Q78.02,71.40 77.95,71.41 Q77.88,71.42 77.81,71.43 Q77.74,71.44 77.67,71.46 Q77.60,71.47 77.54,71.48 Q77.47,71.50 77.41,71.52 Q77.34,71.53 77.28,71.55 Q77.22,71.57 77.15,71.59 Q77.09,71.61 77.03,71.63 Q76.97,71.65 76.91,71.67 Q76.85,71.69 76.79,71.71 Q76.73,71.73 76.68,71.74 Q76.62,71.76 76.56,71.78 Q76.50,71.79 76.45,71.81 Q76.39,71.82 76.34,71.84 Q76.28,71.85 76.23,71.86 Q76.17,71.88 76.11,71.89 Q76.06,71.90 76.00,71.91 Q75.94,71.92 75.87,71.93 Q75.81,71.93 75.74,71.94 Q75.68,71.94 75.61,71.95 Q75.54,71.95 75.47,71.95 Q75.39,71.95 75.32,71.95 Z" transform="translate(0 0) translate(78.26 62.15) scale(1 1) translate(-78.26 -62.15)"/>
    <path d="M49.22,72.34 Q49.22,72.34 49.10,72.22 Q48.98,72.10 48.86,71.98 Q48.75,71.86 48.64,71.73 Q48.52,71.60 48.41,71.48 Q48.30,71.35 48.19,71.22 Q48.09,71.09 47.98,70.95 Q47.88,70.82 47.78,70.68 Q47.67,70.54 47.58,70.40 Q47.48,70.26 47.38,70.12 Q47.29,69.98 47.19,69.83 Q47.09,69.69 47.00,69.55 Q46.90,69.41 46.80,69.27 Q46.70,69.13 46.61,68.99 Q46.51,68.85 46.41,68.71 Q46.31,68.57 46.21,68.43 Q46.11,68.30 46.01,68.16 Q45.90,68.02 45.80,67.88 Q45.70,67.75 45.60,67.61 Q45.49,67.48 45.39,67.34 Q45.28,67.21 45.18,67.08 Q45.07,66.95 44.96,66.81 Q44.86,66.68 44.75,66.55 Q44.64,66.42 44.53,66.29 Q44.42,66.17 44.31,66.04 Q44.20,65.91 44.08,65.79 Q43.97,65.66 43.86,65.53 Q43.75,65.41 43.63,65.28 Q43.52,65.16 43.41,65.03 Q43.29,64.91 43.18,64.78 Q43.06,64.66 42.95,64.53 Q42.83,64.41 42.72,64.29 Q42.60,64.16 42.49,64.04 Q42.37,63.92 42.26,63.79 Q42.14,63.67 42.02,63.55 Q41.91,63.43 41.79,63.31 Q41.67,63.19 41.55,63.07 Q41.43,62.96 41.30,62.84 Q41.18,62.72 41.06,62.61 Q40.93,62.50 40.81,62.38 Q40.68,62.27 40.55,62.16 Q40.42,62.05 40.29,61.94 Q40.16,61.83 40.04,61.72 Q39.91,61.61 39.77,61.51 Q39.64,61.40 39.51,61.29 Q39.38,61.18 39.25,61.08 Q39.12,60.97 38.99,60.86 Q38.86,60.75 38.73,60.65 Q38.59,60.54 38.46,60.44 Q38.33,60.33 38.20,60.22 Q38.06,60.12 37.93,60.01 Q37.79,59.91 37.66,59.80 Q37.53,59.70 37.39,59.60 Q37.25,59.49 37.12,59.39 Q36.98,59.29 36.84,59.19 Q36.71,59.09 36.57,58.99 Q36.43,58.89 36.29,58.79 Q36.15,58.69 36.01,58.59 Q35.87,58.49 35.73,58.39 Q35.59,58.29 35.45,58.19 Q35.31,58.10 35.17,58.00 Q35.03,57.90 34.89,57.80 Q34.75,57.71 34.61,57.61 Q34.46,57.51 34.32,57.42 Q34.18,57.32 34.04,57.23 Q33.89,57.13 33.75,57.03 Q33.61,56.94 33.47,56.84 Q33.32,56.75 33.18,56.65 Q33.04,56.56 32.89,56.46 Q32.75,56.37 32.61,56.27 Q32.46,56.18 32.32,56.08 Q32.18,55.98 32.03,55.89 Q31.89,55.79 31.75,55.70 Q31.60,55.60 31.46,55.51 Q31.32,55.41 31.17,55.32 Q31.03,55.23 30.88,55.13 Q30.73,55.04 30.58,54.95 Q30.43,54.86 30.28,54.78 Q30.13,54.69 29.98,54.61 Q29.82,54.52 29.67,54.44 Q29.51,54.36 29.35,54.28 Q29.20,54.20 29.03,54.12 Q28.87,54.04 28.71,53.96 Q28.55,53.88 28.39,53.80 Q28.23,53.72 28.07,53.65 Q27.91,53.57 27.75,53.49 Q27.59,53.41 27.43,53.33 Q27.27,53.25 27.11,53.18 Q26.95,53.10 26.79,53.02 Q26.63,52.94 26.47,52.86 Q26.31,52.78 26.15,52.71 Q25.99,52.63 25.83,52.55 Q25.67,52.47 25.52,52.39 Q25.36,52.31 25.20,52.23 Q25.04,52.15 24.88,52.07 Q24.72,51.99 24.57,51.91 Q24.41,51.83 24.25,51.74 Q24.09,51.66 23.94,51.58 Q23.78,51.50 23.62,51.42 Q23.47,51.34 23.31,51.26 Q23.15,51.17 22.99,51.09 Q22.83,51.01 22.68,50.93 Q22.52,50.85 22.36,50.77 Q22.20,50.69 22.04,50.62 Q21.88,50.54 21.72,50.46 Q21.56,50.38 21.40,50.30 Q21.24,50.22 21.08,50.14 Q20.92,50.07 20.75,49.99 Q20.59,49.92 20.42,49.84 Q20.26,49.77 20.09,49.70 Q19.93,49.63 19.76,49.56 Q19.59,49.49 19.42,49.42 Q19.25,49.35 19.08,49.29 Q18.90,49.22 18.73,49.15 Q18.56,49.09 18.38,49.02 Q18.21,48.96 18.04,48.89 Q17.87,48.82 17.71,48.75 Q17.54,48.68 17.37,48.60 Q17.21,48.53 17.04,48.45 Q16.88,48.38 16.72,48.30 Q16.56,48.22 16.40,48.14 Q16.24,48.06 16.09,47.98 Q15.93,47.90 15.77,47.82 Q15.61,47.74 15.45,47.66 Q15.30,47.58 15.14,47.50 Q14.98,47.42 14.82,47.34 Q14.66,47.26 14.50,47.19 Q14.34,47.11 14.17,47.03 Q14.01,46.96 13.85,46.88 Q13.69,46.80 13.52,46.73 Q13.36,46.65 13.20,46.58 Q13.03,46.50 12.87,46.43 Q12.71,46.35 12.54,46.27 Q12.38,46.20 12.22,46.12 Q12.06,46.05 11.90,45.97 Q11.74,45.89 11.57,45.81 Q11.41,45.74 11.25,45.66 Q11.09,45.58 10.93,45.50 Q10.77,45.42 10.61,45.34 Q10.46,45.26 10.30,45.18 Q10.14,45.10 9.99,45.02 Q9.83,44.93 9.68,44.85 Q9.52,44.76 9.37,44.68 Q9.22,44.59 9.07,44.50 Q8.92,44.41 8.77,44.32 Q8.63,44.23 8.48,44.14 Q8.33,44.05 8.19,43.95 Q8.04,43.86 7.89,43.77 Q7.75,43.68 7.60,43.58 Q7.46,43.49 7.31,43.40 Q7.17,43.30 7.02,43.21 Q6.88,43.11 6.74,43.02 Q6.59,42.92 6.45,42.83 Q6.30,42.73 6.16,42.64 Q6.02,42.54 5.88,42.44 Q5.74,42.35 5.60,42.24 Q5.47,42.14 5.33,42.04 Q5.20,41.93 5.07,41.82 Q4.94,41.71 4.82,41.60 Q4.69,41.49 4.57,41.37 Q4.44,41.26 4.32,41.14 Q4.21,41.02 4.09,40.89 Q3.97,40.77 3.86,40.65 Q3.75,40.52 3.64,40.39 Q3.53,40.26 3.42,40.13 Q3.31,40.00 3.21,39.87 Q3.11,39.73 3.01,39.59 Q2.90,39.46 2.81,39.31 Q2.71,39.17 2.61,39.03 Q2.52,38.89 2.43,38.74 Q2.33,38.59 2.25,38.44 Q2.17,38.28 2.09,38.12 Q2.01,37.96 1.95,37.79 Q1.88,37.62 1.82,37.44 Q1.76,37.26 1.71,37.07 Q1.66,36.89 1.61,36.69 Q1.57,36.50 1.53,36.29 Q1.50,36.09 1.47,35.88 Q1.44,35.67 1.43,35.46 Q1.41,35.25 1.40,35.04 Q1.39,34.84 1.39,34.63 Q1.39,34.43 1.40,34.23 Q1.41,34.03 1.43,33.83 Q1.45,33.63 1.48,33.43 Q1.51,33.24 1.55,33.05 Q1.59,32.85 1.64,32.66 Q1.68,32.47 1.74,32.29 Q1.80,32.11 1.86,31.93 Q1.93,31.76 2.00,31.59 Q2.07,31.43 2.15,31.27 Q2.24,31.11 2.33,30.97 Q2.42,30.82 2.51,30.68 Q2.61,30.54 2.72,30.41 Q2.83,30.28 2.94,30.15 Q3.06,30.03 3.18,29.91 Q3.30,29.79 3.42,29.68 Q3.55,29.56 3.68,29.45 Q3.81,29.35 3.94,29.24 Q4.07,29.13 4.21,29.03 Q4.35,28.93 4.49,28.83 Q4.63,28.74 4.78,28.64 Q4.92,28.55 5.07,28.46 Q5.22,28.37 5.38,28.29 Q5.53,28.21 5.69,28.13 Q5.85,28.05 6.02,27.98 Q6.18,27.90 6.35,27.84 Q6.52,27.77 6.70,27.70 Q6.87,27.64 7.05,27.58 Q7.23,27.53 7.42,27.47 Q7.61,27.42 7.80,27.37 Q7.99,27.32 8.18,27.28 Q8.38,27.24 8.58,27.20 Q8.78,27.16 8.98,27.13 Q9.19,27.09 9.40,27.07 Q9.61,27.04 9.82,27.01 Q10.04,26.99 10.26,26.97 Q10.47,26.95 10.70,26.93 Q10.92,26.92 11.15,26.91 Q11.38,26.90 11.60,26.89 Q11.83,26.89 12.05,26.89 Q12.27,26.89 12.49,26.90 Q12.71,26.90 12.93,26.92 Q13.15,26.93 13.36,26.94 Q13.57,26.96 13.78,26.99 Q13.99,27.01 14.20,27.04 Q14.41,27.07 14.61,27.10 Q14.82,27.13 15.02,27.17 Q15.22,27.20 15.43,27.24 Q15.63,27.27 15.83,27.31 Q16.03,27.35 16.24,27.39 Q16.44,27.42 16.64,27.46 Q16.84,27.50 17.04,27.54 Q17.24,27.58 17.43,27.62 Q17.63,27.66 17.83,27.70 Q18.03,27.74 18.22,27.78 Q18.42,27.83 18.61,27.87 Q18.81,27.91 19.00,27.96 Q19.19,28.01 19.38,28.05 Q19.57,28.10 19.76,28.15 Q19.95,28.20 20.14,28.25 Q20.33,28.30 20.51,28.36 Q20.70,28.41 20.88,28.46 Q21.07,28.52 21.25,28.57 Q21.43,28.63 21.61,28.69 Q21.79,28.75 21.97,28.81 Q22.15,28.87 22.32,28.93 Q22.50,29.00 22.67,29.06 Q22.84,29.13 23.01,29.19 Q23.19,29.26 23.36,29.33 Q23.52,29.40 23.69,29.47 Q23.86,29.54 24.03,29.61 Q24.19,29.68 24.36,29.75 Q24.53,29.82 24.70,29.89 Q24.87,29.96 25.04,30.03 Q25.21,30.10 25.38,30.17 Q25.55,30.23 25.73,30.30 Q25.90,30.37 26.07,30.43 Q26.24,30.50 26.42,30.56 Q26.59,30.63 26.76,30.69 Q26.93,30.76 27.10,30.83 Q27.27,30.90 27.44,30.97 Q27.61,31.04 27.77,31.11 Q27.94,31.19 28.10,31.26 Q28.27,31.34 28.43,31.42 Q28.59,31.49 28.75,31.57 Q28.91,31.65 29.06,31.73 Q29.22,31.82 29.38,31.90 Q29.53,31.98 29.69,32.06 Q29.85,32.14 30.01,32.22 Q30.17,32.30 30.33,32.37 Q30.49,32.45 30.65,32.53 Q30.81,32.61 30.97,32.68 Q31.14,32.76 31.30,32.84 Q31.46,32.91 31.62,32.99 Q31.79,33.06 31.95,33.14 Q32.12,33.21 32.28,33.29 Q32.44,33.36 32.61,33.44 Q32.77,33.51 32.93,33.59 Q33.10,33.66 33.26,33.74 Q33.42,33.81 33.59,33.89 Q33.75,33.96 33.91,34.04 Q34.08,34.11 34.24,34.19 Q34.41,34.26 34.57,34.34 Q34.73,34.41 34.90,34.49 Q35.06,34.56 35.22,34.64 Q35.39,34.71 35.55,34.79 Q35.71,34.86 35.88,34.94 Q36.04,35.01 36.21,35.09 Q36.37,35.16 36.53,35.24 Q36.70,35.31 36.86,35.39 Q37.02,35.46 37.19,35.54 Q37.35,35.61 37.51,35.69 Q37.68,35.76 37.84,35.84 Q38.00,35.91 38.17,35.99 Q38.33,36.06 38.50,36.14 Q38.66,36.21 38.82,36.29 Q38.99,36.36 39.15,36.44 Q39.31,36.51 39.48,36.59 Q39.64,36.66 39.81,36.73 Q39.97,36.81 40.14,36.88 Q40.30,36.95 40.47,37.02 Q40.64,37.09 40.81,37.16 Q40.98,37.23 41.15,37.29 Q41.33,37.36 41.50,37.43 Q41.67,37.49 41.85,37.55 Q42.03,37.62 42.20,37.68 Q42.38,37.74 42.56,37.80 Q42.74,37.86 42.92,37.92 Q43.10,37.97 43.28,38.03 Q43.46,38.09 43.65,38.14 Q43.83,38.20 44.02,38.25 Q44.20,38.30 44.39,38.35 Q44.58,38.40 44.77,38.45 Q44.96,38.50 45.15,38.55 Q45.34,38.60 45.53,38.64 Q45.73,38.69 45.92,38.73 Q46.12,38.77 46.32,38.81 Q46.52,38.84 46.73,38.88 Q46.93,38.91 47.14,38.94 Q47.35,38.97 47.56,39.00 Q47.77,39.03 47.99,39.05 Q48.20,39.07 48.42,39.09 Q48.64,39.12 48.85,39.13 Q49.07,39.15 49.29,39.16 Q49.51,39.17 49.73,39.17 Q49.95,39.18 50.16,39.18 Q50.38,39.18 50.60,39.17 Q50.82,39.17 51.04,39.16 Q51.25,39.15 51.47,39.13 Q51.69,39.12 51.91,39.09 Q52.13,39.07 52.34,39.05 Q52.55,39.03 52.76,39.00 Q52.97,38.97 53.18,38.93 Q53.38,38.90 53.59,38.86 Q53.79,38.83 53.98,38.78 Q54.18,38.74 54.37,38.70 Q54.56,38.65 54.75,38.60 Q54.94,38.55 55.13,38.50 Q55.31,38.44 55.49,38.38 Q55.67,38.33 55.85,38.27 Q56.04,38.21 56.21,38.15 Q56.39,38.09 56.57,38.03 Q56.75,37.97 56.92,37.91 Q57.10,37.84 57.27,37.78 Q57.45,37.71 57.62,37.65 Q57.79,37.58 57.96,37.51 Q58.13,37.45 58.30,37.38 Q58.47,37.31 58.65,37.24 Q58.82,37.18 58.99,37.11 Q59.16,37.05 59.34,36.98 Q59.51,36.92 59.69,36.85 Q59.86,36.79 60.04,36.73 Q60.21,36.66 60.39,36.60 Q60.56,36.54 60.74,36.48 Q60.92,36.42 61.09,36.35 Q61.27,36.29 61.44,36.22 Q61.61,36.16 61.78,36.09 Q61.95,36.02 62.12,35.95 Q62.29,35.87 62.45,35.80 Q62.61,35.73 62.78,35.65 Q62.94,35.57 63.10,35.49 Q63.26,35.41 63.41,35.33 Q63.57,35.25 63.73,35.17 Q63.88,35.09 64.04,35.01 Q64.20,34.93 64.36,34.85 Q64.52,34.77 64.67,34.69 Q64.83,34.61 64.99,34.53 Q65.15,34.45 65.31,34.37 Q65.47,34.29 65.63,34.21 Q65.79,34.13 65.95,34.05 Q66.11,33.97 66.27,33.90 Q66.43,33.82 66.59,33.74 Q66.75,33.66 66.92,33.59 Q67.08,33.51 67.24,33.44 Q67.41,33.36 67.57,33.29 Q67.74,33.21 67.90,33.14 Q68.07,33.07 68.23,33.00 Q68.40,32.92 68.57,32.85 Q68.73,32.78 68.90,32.71 Q69.07,32.64 69.23,32.56 Q69.40,32.49 69.56,32.42 Q69.73,32.35 69.90,32.27 Q70.06,32.20 70.23,32.13 Q70.39,32.05 70.55,31.98 Q70.72,31.90 70.88,31.83 Q71.05,31.75 71.21,31.68 Q71.37,31.60 71.54,31.53 Q71.70,31.46 71.87,31.38 Q72.03,31.31 72.20,31.24 Q72.37,31.16 72.53,31.09 Q72.70,31.02 72.87,30.95 Q73.04,30.88 73.20,30.81 Q73.37,30.74 73.54,30.67 Q73.71,30.60 73.88,30.53 Q74.05,30.47 74.22,30.40 Q74.39,30.33 74.56,30.26 Q74.73,30.19 74.90,30.13 Q75.07,30.06 75.25,29.99 Q75.42,29.92 75.59,29.85 Q75.76,29.78 75.93,29.72 Q76.10,29.65 76.27,29.58 Q76.44,29.51 76.61,29.44 Q76.78,29.38 76.95,29.31 Q77.12,29.24 77.30,29.18 Q77.47,29.11 77.65,29.05 Q77.82,28.99 78.00,28.93 Q78.18,28.86 78.36,28.80 Q78.53,28.75 78.71,28.69 Q78.90,28.63 79.08,28.57 Q79.26,28.52 79.44,28.46 Q79.63,28.41 79.81,28.36 Q80.00,28.30 80.19,28.25 Q80.37,28.20 80.56,28.15 Q80.75,28.10 80.94,28.05 Q81.13,28.01 81.33,27.96 Q81.52,27.91 81.71,27.87 Q81.91,27.83 82.10,27.78 Q82.30,27.74 82.50,27.70 Q82.69,27.66 82.89,27.62 Q83.09,27.58 83.29,27.54 Q83.49,27.50 83.69,27.46 Q83.89,27.42 84.09,27.39 Q84.29,27.35 84.50,27.31 Q84.70,27.27 84.90,27.24 Q85.10,27.20 85.31,27.17 Q85.51,27.13 85.71,27.10 Q85.92,27.07 86.12,27.04 Q86.33,27.01 86.54,26.99 Q86.75,26.97 86.96,26.96 Q87.17,26.94 87.38,26.94 Q87.59,26.93 87.80,26.93 Q88.01,26.93 88.23,26.94 Q88.44,26.94 88.66,26.96 Q88.88,26.97 89.09,26.99 Q89.31,27.01 89.53,27.03 Q89.74,27.06 89.95,27.09 Q90.16,27.11 90.37,27.14 Q90.58,27.17 90.79,27.21 Q90.99,27.24 91.19,27.28 Q91.39,27.32 91.59,27.36 Q91.79,27.40 91.98,27.44 Q92.18,27.49 92.37,27.54 Q92.56,27.58 92.74,27.64 Q92.93,27.69 93.11,27.74 Q93.30,27.80 93.47,27.86 Q93.65,27.92 93.82,27.99 Q94.00,28.05 94.17,28.12 Q94.34,28.19 94.50,28.26 Q94.67,28.33 94.83,28.41 Q94.99,28.49 95.15,28.57 Q95.30,28.65 95.45,28.74 Q95.60,28.83 95.75,28.93 Q95.89,29.02 96.03,29.12 Q96.16,29.23 96.29,29.33 Q96.42,29.44 96.54,29.56 Q96.67,29.68 96.78,29.80 Q96.90,29.92 97.01,30.05 Q97.12,30.18 97.22,30.32 Q97.32,30.45 97.42,30.60 Q97.51,30.74 97.60,30.89 Q97.69,31.04 97.77,31.20 Q97.85,31.36 97.92,31.52 Q97.99,31.69 98.06,31.86 Q98.13,32.03 98.19,32.21 Q98.24,32.39 98.30,32.58 Q98.35,32.77 98.39,32.96 Q98.44,33.15 98.47,33.35 Q98.50,33.55 98.53,33.74 Q98.55,33.94 98.57,34.13 Q98.58,34.33 98.58,34.53 Q98.59,34.73 98.58,34.92 Q98.57,35.12 98.56,35.32 Q98.54,35.52 98.51,35.72 Q98.48,35.92 98.45,36.12 Q98.41,36.32 98.36,36.52 Q98.32,36.71 98.27,36.90 Q98.22,37.09 98.16,37.26 Q98.10,37.44 98.03,37.62 Q97.96,37.79 97.89,37.95 Q97.82,38.12 97.74,38.28 Q97.65,38.43 97.57,38.58 Q97.48,38.73 97.38,38.88 Q97.29,39.02 97.19,39.16 Q97.09,39.30 96.99,39.44 Q96.89,39.58 96.79,39.71 Q96.68,39.85 96.58,39.98 Q96.47,40.11 96.36,40.24 Q96.26,40.37 96.15,40.50 Q96.03,40.63 95.92,40.76 Q95.81,40.88 95.69,41.00 Q95.58,41.13 95.46,41.25 Q95.34,41.36 95.22,41.48 Q95.09,41.60 94.97,41.71 Q94.84,41.82 94.71,41.93 Q94.58,42.04 94.45,42.14 Q94.32,42.25 94.18,42.35 Q94.04,42.46 93.90,42.55 Q93.76,42.65 93.62,42.75 Q93.48,42.84 93.33,42.94 Q93.19,43.03 93.04,43.13 Q92.90,43.22 92.75,43.31 Q92.61,43.41 92.46,43.50 Q92.32,43.59 92.17,43.68 Q92.02,43.77 91.87,43.86 Q91.72,43.95 91.57,44.04 Q91.43,44.13 91.28,44.22 Q91.13,44.31 90.98,44.40 Q90.82,44.48 90.67,44.57 Q90.52,44.66 90.37,44.74 Q90.22,44.83 90.06,44.92 Q89.91,45.00 89.76,45.09 Q89.60,45.17 89.45,45.25 Q89.29,45.34 89.13,45.42 Q88.98,45.50 88.82,45.58 Q88.67,45.67 88.51,45.75 Q88.35,45.83 88.19,45.91 Q88.03,45.99 87.87,46.07 Q87.71,46.15 87.55,46.22 Q87.39,46.30 87.23,46.38 Q87.07,46.46 86.91,46.53 Q86.75,46.61 86.59,46.69 Q86.42,46.76 86.26,46.84 Q86.10,46.91 85.93,46.99 Q85.77,47.06 85.61,47.14 Q85.44,47.21 85.28,47.29 Q85.12,47.37 84.96,47.44 Q84.80,47.52 84.63,47.60 Q84.47,47.67 84.31,47.75 Q84.15,47.83 83.99,47.91 Q83.83,47.99 83.67,48.06 Q83.51,48.14 83.35,48.22 Q83.19,48.30 83.03,48.38 Q82.87,48.46 82.71,48.53 Q82.55,48.61 82.39,48.69 Q82.23,48.77 82.07,48.85 Q81.91,48.93 81.75,49.00 Q81.59,49.08 81.43,49.16 Q81.27,49.24 81.11,49.32 Q80.95,49.40 80.79,49.47 Q80.62,49.55 80.46,49.63 Q80.30,49.70 80.13,49.78 Q79.97,49.85 79.81,49.93 Q79.64,50.00 79.47,50.07 Q79.31,50.14 79.14,50.21 Q78.97,50.28 78.80,50.35 Q78.63,50.42 78.46,50.49 Q78.29,50.56 78.12,50.63 Q77.95,50.70 77.79,50.77 Q77.62,50.84 77.46,50.92 Q77.29,50.99 77.13,51.06 Q76.96,51.14 76.80,51.21 Q76.64,51.29 76.48,51.37 Q76.32,51.45 76.16,51.53 Q76.00,51.61 75.85,51.69 Q75.69,51.77 75.53,51.85 Q75.37,51.93 75.22,52.02 Q75.06,52.10 74.90,52.18 Q74.74,52.26 74.58,52.34 Q74.43,52.42 74.27,52.50 Q74.11,52.58 73.95,52.66 Q73.79,52.74 73.63,52.81 Q73.47,52.89 73.31,52.97 Q73.15,53.05 72.99,53.13 Q72.83,53.21 72.67,53.29 Q72.51,53.37 72.36,53.45 Q72.20,53.53 72.04,53.61 Q71.89,53.69 71.73,53.78 Q71.57,53.86 71.42,53.94 Q71.26,54.03 71.11,54.11 Q70.95,54.20 70.80,54.28 Q70.65,54.37 70.50,54.45 Q70.34,54.54 70.19,54.62 Q70.04,54.71 69.89,54.80 Q69.73,54.88 69.58,54.97 Q69.43,55.06 69.28,55.14 Q69.13,55.23 68.98,55.32 Q68.83,55.41 68.68,55.49 Q68.53,55.58 68.38,55.67 Q68.23,55.76 68.08,55.85 Q67.93,55.94 67.78,56.03 Q67.63,56.12 67.48,56.21 Q67.34,56.30 67.19,56.39 Q67.04,56.49 66.90,56.58 Q66.75,56.67 66.61,56.76 Q66.46,56.86 66.32,56.95 Q66.17,57.05 66.03,57.14 Q65.89,57.24 65.74,57.33 Q65.60,57.43 65.46,57.53 Q65.32,57.62 65.18,57.72 Q65.03,57.82 64.89,57.91 Q64.75,58.01 64.61,58.11 Q64.47,58.21 64.33,58.30 Q64.19,58.40 64.05,58.50 Q63.91,58.60 63.77,58.70 Q63.63,58.80 63.49,58.90 Q63.35,59.00 63.21,59.10 Q63.08,59.20 62.94,59.30 Q62.81,59.40 62.67,59.51 Q62.54,59.61 62.40,59.72 Q62.27,59.82 62.14,59.93 Q62.01,60.04 61.87,60.14 Q61.74,60.25 61.61,60.36 Q61.48,60.47 61.36,60.58 Q61.23,60.69 61.10,60.80 Q60.97,60.91 60.84,61.02 Q60.72,61.13 60.59,61.25 Q60.47,61.36 60.34,61.47 Q60.22,61.58 60.09,61.70 Q59.97,61.81 59.84,61.93 Q59.72,62.04 59.60,62.16 Q59.47,62.28 59.35,62.39 Q59.23,62.51 59.10,62.62 Q58.98,62.74 58.86,62.85 Q58.73,62.97 58.61,63.08 Q58.48,63.19 58.36,63.31 Q58.23,63.42 58.11,63.53 Q57.98,63.65 57.86,63.76 Q57.73,63.87 57.61,63.99 Q57.48,64.10 57.36,64.21 Q57.23,64.33 57.11,64.45 Q56.99,64.56 56.87,64.68 Q56.75,64.80 56.64,64.93 Q56.52,65.05 56.41,65.17 Q56.30,65.30 56.19,65.43 Q56.07,65.56 55.97,65.69 Q55.86,65.82 55.75,65.95 Q55.65,66.08 55.54,66.21 Q55.44,66.35 55.33,66.48 Q55.22,66.61 55.12,66.75 Q55.01,66.88 54.91,67.01 Q54.80,67.14 54.70,67.28 Q54.59,67.41 54.48,67.54 Q54.38,67.68 54.27,67.81 Q54.17,67.94 54.06,68.08 Q53.96,68.21 53.85,68.34 Q53.75,68.48 53.65,68.61 Q53.54,68.75 53.44,68.89 Q53.34,69.03 53.24,69.17 Q53.15,69.31 53.05,69.45 Q52.95,69.59 52.86,69.73 Q52.76,69.87 52.67,70.02 Q52.57,70.16 52.48,70.31 Q52.39,70.46 52.30,70.60 Q52.20,70.74 52.11,70.88 Q52.01,71.01 51.91,71.14 Q51.82,71.28 51.72,71.40 Q51.62,71.53 51.52,71.65 Q51.42,71.77 51.32,71.89 Q51.21,72.00 51.11,72.11 Q51.01,72.22 50.90,72.33 Q50.79,72.43 50.69,72.51 Q50.58,72.59 50.47,72.64 Q50.36,72.69 50.25,72.71 Q50.14,72.73 50.03,72.72 Q49.91,72.72 49.80,72.68 Q49.69,72.65 49.57,72.58 Q49.45,72.52 49.34,72.43 Z" transform="translate(0 0)"/>
  </g>
</svg>